<mxfile host="app.diagrams.net" modified="2022-11-18T08:34:01.540Z" agent="5.0 (Windows NT 10.0; Win64; x64) AppleWebKit/537.36 (KHTML, like Gecko) Chrome/107.0.0.0 Safari/537.36" etag="HgAj44wh2BR4Lylji-eC" version="20.5.1" type="github">
  <diagram id="vThjLkdaLrChTEGQis4w" name="API Gateway rules">
    <mxGraphModel dx="1341" dy="802" grid="1" gridSize="10" guides="1" tooltips="1" connect="1" arrows="1" fold="1" page="1" pageScale="1" pageWidth="1100" pageHeight="850" math="0" shadow="0">
      <root>
        <mxCell id="0" />
        <mxCell id="1" parent="0" />
        <mxCell id="Ni1SKgl-pVfX1PM7O6Lp-2" value="VPC" style="sketch=0;outlineConnect=0;html=1;whiteSpace=wrap;fontSize=12;fontStyle=0;shape=mxgraph.aws4.group;grIcon=mxgraph.aws4.group_vpc;strokeColor=#666666;fillColor=#f5f5f5;verticalAlign=top;align=left;spacingLeft=30;dashed=0;gradientColor=#b3b3b3;" parent="1" vertex="1">
          <mxGeometry x="610" y="50" width="470" height="590" as="geometry" />
        </mxCell>
        <mxCell id="aJCi2LfdPKJOA3wetlMQ-4" value="POST /webhook/&lt;b&gt;stripe&lt;/b&gt;/{proxy+}" style="edgeStyle=orthogonalEdgeStyle;rounded=1;orthogonalLoop=1;jettySize=auto;html=1;exitX=1;exitY=0.5;exitDx=0;exitDy=0;fontSize=14;align=center;spacingLeft=0;verticalAlign=middle;horizontal=1;" parent="1" source="aJCi2LfdPKJOA3wetlMQ-1" target="aJCi2LfdPKJOA3wetlMQ-3" edge="1">
          <mxGeometry x="-0.1579" y="15" relative="1" as="geometry">
            <mxPoint as="offset" />
          </mxGeometry>
        </mxCell>
        <mxCell id="aJCi2LfdPKJOA3wetlMQ-12" value="POST /webhook/&lt;b&gt;twilio&lt;/b&gt;/callback/{uuid}" style="edgeStyle=orthogonalEdgeStyle;rounded=1;orthogonalLoop=1;jettySize=auto;html=1;exitX=1;exitY=0.5;exitDx=0;exitDy=0;entryX=0.145;entryY=0.145;entryDx=0;entryDy=0;entryPerimeter=0;fontSize=14;align=center;spacingLeft=0;verticalAlign=middle;horizontal=1;" parent="1" source="aJCi2LfdPKJOA3wetlMQ-1" target="aJCi2LfdPKJOA3wetlMQ-10" edge="1">
          <mxGeometry x="-0.2749" y="17" relative="1" as="geometry">
            <Array as="points">
              <mxPoint x="290" y="135" />
              <mxPoint x="290" y="197" />
            </Array>
            <mxPoint as="offset" />
          </mxGeometry>
        </mxCell>
        <mxCell id="aJCi2LfdPKJOA3wetlMQ-13" value="POST /webhook/&lt;b&gt;twilio&lt;/b&gt;/user-input" style="edgeStyle=orthogonalEdgeStyle;rounded=1;orthogonalLoop=1;jettySize=auto;html=1;exitX=1;exitY=0.5;exitDx=0;exitDy=0;entryX=0.145;entryY=0.855;entryDx=0;entryDy=0;entryPerimeter=0;fontSize=14;align=center;spacingLeft=0;verticalAlign=middle;horizontal=1;" parent="1" source="aJCi2LfdPKJOA3wetlMQ-1" target="aJCi2LfdPKJOA3wetlMQ-10" edge="1">
          <mxGeometry x="-0.2673" y="18" relative="1" as="geometry">
            <mxPoint x="830" y="385" as="targetPoint" />
            <Array as="points">
              <mxPoint x="290" y="135" />
              <mxPoint x="290" y="233" />
            </Array>
            <mxPoint as="offset" />
          </mxGeometry>
        </mxCell>
        <mxCell id="aJCi2LfdPKJOA3wetlMQ-15" value="POST /qraphql,&amp;nbsp;GET /graphiql" style="edgeStyle=orthogonalEdgeStyle;rounded=1;orthogonalLoop=1;jettySize=auto;html=1;exitX=1;exitY=0.5;exitDx=0;exitDy=0;entryX=0;entryY=0.5;entryDx=0;entryDy=0;fontSize=14;align=center;spacingLeft=0;verticalAlign=middle;horizontal=1;" parent="1" source="aJCi2LfdPKJOA3wetlMQ-1" target="aJCi2LfdPKJOA3wetlMQ-14" edge="1">
          <mxGeometry x="0.3277" y="15" relative="1" as="geometry">
            <Array as="points">
              <mxPoint x="290" y="135" />
              <mxPoint x="290" y="385" />
            </Array>
            <mxPoint as="offset" />
          </mxGeometry>
        </mxCell>
        <mxCell id="BPBLQY2pXgUHWdL-GGip-3" value="POST /auth/{proxy+}," style="edgeStyle=orthogonalEdgeStyle;rounded=1;orthogonalLoop=1;jettySize=auto;html=1;exitX=1;exitY=0.5;exitDx=0;exitDy=0;entryX=0;entryY=0.5;entryDx=0;entryDy=0;fontSize=14;align=center;spacingLeft=0;verticalAlign=middle;horizontal=1;" parent="1" source="aJCi2LfdPKJOA3wetlMQ-1" target="BPBLQY2pXgUHWdL-GGip-2" edge="1">
          <mxGeometry x="0.3388" y="20" relative="1" as="geometry">
            <Array as="points">
              <mxPoint x="290" y="135" />
              <mxPoint x="290" y="450" />
            </Array>
            <mxPoint as="offset" />
          </mxGeometry>
        </mxCell>
        <mxCell id="BPBLQY2pXgUHWdL-GGip-6" value="POST /contact/import" style="edgeStyle=orthogonalEdgeStyle;rounded=1;orthogonalLoop=1;jettySize=auto;html=1;exitX=1;exitY=0.5;exitDx=0;exitDy=0;entryX=0;entryY=0.5;entryDx=0;entryDy=0;fontSize=14;align=center;spacingLeft=0;verticalAlign=middle;horizontal=1;" parent="1" source="aJCi2LfdPKJOA3wetlMQ-1" target="BPBLQY2pXgUHWdL-GGip-4" edge="1">
          <mxGeometry x="0.4745" y="20" relative="1" as="geometry">
            <Array as="points">
              <mxPoint x="290" y="135" />
              <mxPoint x="290" y="530" />
            </Array>
            <mxPoint as="offset" />
          </mxGeometry>
        </mxCell>
        <mxCell id="gcAs9tMO-If9xyW5QWZl-3" value="POST /assets/{proxy+}" style="edgeStyle=orthogonalEdgeStyle;rounded=1;orthogonalLoop=1;jettySize=auto;html=1;exitX=1;exitY=0.5;exitDx=0;exitDy=0;entryX=0;entryY=0.5;entryDx=0;entryDy=0;fontSize=14;" parent="1" source="aJCi2LfdPKJOA3wetlMQ-1" target="gcAs9tMO-If9xyW5QWZl-1" edge="1">
          <mxGeometry x="0.52" y="15" relative="1" as="geometry">
            <Array as="points">
              <mxPoint x="290" y="135" />
              <mxPoint x="290" y="595" />
            </Array>
            <mxPoint as="offset" />
          </mxGeometry>
        </mxCell>
        <mxCell id="c8PIJF_xXpLWCKPmOtRB-2" value="&lt;span style=&quot;font-size: 14px;&quot;&gt;POST /webhook/&lt;b&gt;webform&lt;/b&gt;/{uuid}&lt;/span&gt;" style="edgeStyle=orthogonalEdgeStyle;rounded=1;orthogonalLoop=1;jettySize=auto;html=1;exitX=1;exitY=0.5;exitDx=0;exitDy=0;entryX=0;entryY=0.5;entryDx=0;entryDy=0;entryPerimeter=0;" parent="1" source="aJCi2LfdPKJOA3wetlMQ-1" target="c8PIJF_xXpLWCKPmOtRB-1" edge="1">
          <mxGeometry x="-0.4933" y="20" relative="1" as="geometry">
            <Array as="points">
              <mxPoint x="290" y="135" />
              <mxPoint x="290" y="170" />
              <mxPoint x="980" y="170" />
            </Array>
            <mxPoint as="offset" />
          </mxGeometry>
        </mxCell>
        <mxCell id="aJCi2LfdPKJOA3wetlMQ-1" value="api.&lt;b&gt;dev&lt;/b&gt;.callloop.com" style="rounded=1;whiteSpace=wrap;html=1;fontSize=14;" parent="1" vertex="1">
          <mxGeometry x="115" y="120" width="160" height="30" as="geometry" />
        </mxCell>
        <mxCell id="aJCi2LfdPKJOA3wetlMQ-9" value="POST/GET /webhook/{&lt;b&gt;app&lt;/b&gt;}/{uuid}" style="edgeStyle=orthogonalEdgeStyle;rounded=1;orthogonalLoop=1;jettySize=auto;html=1;exitX=1;exitY=0.5;exitDx=0;exitDy=0;fontSize=14;align=center;spacingLeft=0;verticalAlign=middle;horizontal=1;entryX=0;entryY=0.5;entryDx=0;entryDy=0;entryPerimeter=0;" parent="1" source="aJCi2LfdPKJOA3wetlMQ-1" target="aJCi2LfdPKJOA3wetlMQ-8" edge="1">
          <mxGeometry x="-0.3099" y="15" relative="1" as="geometry">
            <Array as="points">
              <mxPoint x="290" y="135" />
              <mxPoint x="290" y="275" />
            </Array>
            <mxPoint as="offset" />
          </mxGeometry>
        </mxCell>
        <mxCell id="aJCi2LfdPKJOA3wetlMQ-2" value="api.&lt;b&gt;qa&lt;/b&gt;.callloop.com" style="rounded=1;whiteSpace=wrap;html=1;fontSize=14;" parent="1" vertex="1">
          <mxGeometry x="115" y="160" width="160" height="30" as="geometry" />
        </mxCell>
        <mxCell id="aJCi2LfdPKJOA3wetlMQ-3" value="http://&lt;b&gt;billing&lt;/b&gt;.local.&lt;b&gt;dev&lt;/b&gt;:9090/api/webhook/{proxy}" style="rounded=1;whiteSpace=wrap;html=1;fontSize=14;" parent="1" vertex="1">
          <mxGeometry x="630" y="110" width="330" height="50" as="geometry" />
        </mxCell>
        <mxCell id="aJCi2LfdPKJOA3wetlMQ-5" value="api.&lt;b&gt;stg&lt;/b&gt;.callloop.com" style="rounded=1;whiteSpace=wrap;html=1;fontSize=14;" parent="1" vertex="1">
          <mxGeometry x="115" y="200" width="160" height="30" as="geometry" />
        </mxCell>
        <mxCell id="aJCi2LfdPKJOA3wetlMQ-6" value="api.&lt;b&gt;app&lt;/b&gt;.callloop.com &lt;b&gt;(prod)&lt;/b&gt;" style="rounded=1;whiteSpace=wrap;html=1;fontSize=14;" parent="1" vertex="1">
          <mxGeometry x="60" y="240" width="215" height="30" as="geometry" />
        </mxCell>
        <mxCell id="aJCi2LfdPKJOA3wetlMQ-8" value="trigger-input" style="outlineConnect=0;dashed=0;verticalLabelPosition=bottom;verticalAlign=top;align=center;html=1;shape=mxgraph.aws3.lambda_function;fillColor=#F58534;gradientColor=none;fontSize=14;" parent="1" vertex="1">
          <mxGeometry x="990" y="250" width="50" height="50" as="geometry" />
        </mxCell>
        <mxCell id="aJCi2LfdPKJOA3wetlMQ-10" value="sms-callback" style="outlineConnect=0;dashed=0;verticalLabelPosition=bottom;verticalAlign=top;align=center;html=1;shape=mxgraph.aws3.lambda_function;fillColor=#F58534;gradientColor=none;fontSize=14;" parent="1" vertex="1">
          <mxGeometry x="860" y="190" width="50" height="50" as="geometry" />
        </mxCell>
        <mxCell id="aJCi2LfdPKJOA3wetlMQ-14" value="http://&lt;b&gt;config&lt;/b&gt;.local.&lt;b&gt;dev&lt;/b&gt;:8080/{path}" style="rounded=1;whiteSpace=wrap;html=1;fontSize=14;" parent="1" vertex="1">
          <mxGeometry x="620" y="360" width="320" height="50" as="geometry" />
        </mxCell>
        <mxCell id="BPBLQY2pXgUHWdL-GGip-2" value="http://&lt;b&gt;config&lt;/b&gt;.local.&lt;b&gt;dev&lt;/b&gt;:8080/&lt;b&gt;api&lt;/b&gt;/auth/{proxy}" style="rounded=1;whiteSpace=wrap;html=1;fontSize=14;" parent="1" vertex="1">
          <mxGeometry x="620" y="425" width="320" height="50" as="geometry" />
        </mxCell>
        <mxCell id="BPBLQY2pXgUHWdL-GGip-4" value="http://&lt;b&gt;config&lt;/b&gt;.local.&lt;b&gt;dev&lt;/b&gt;:8080/&lt;b&gt;api&lt;/b&gt;/contact/import" style="rounded=1;whiteSpace=wrap;html=1;fontSize=14;" parent="1" vertex="1">
          <mxGeometry x="620" y="505" width="320" height="50" as="geometry" />
        </mxCell>
        <mxCell id="gcAs9tMO-If9xyW5QWZl-1" value="http://&lt;b&gt;config&lt;/b&gt;.local.&lt;b&gt;dev&lt;/b&gt;:8080/&lt;b&gt;api&lt;/b&gt;/assets/{proxy}" style="rounded=1;whiteSpace=wrap;html=1;fontSize=14;" parent="1" vertex="1">
          <mxGeometry x="620" y="570" width="320" height="50" as="geometry" />
        </mxCell>
        <mxCell id="c8PIJF_xXpLWCKPmOtRB-1" value="webform-input" style="outlineConnect=0;dashed=0;verticalLabelPosition=bottom;verticalAlign=top;align=center;html=1;shape=mxgraph.aws3.lambda_function;fillColor=#F58534;gradientColor=none;fontSize=14;" parent="1" vertex="1">
          <mxGeometry x="990" y="145" width="50" height="50" as="geometry" />
        </mxCell>
      </root>
    </mxGraphModel>
  </diagram>
</mxfile>
